<?xml version="1.0" encoding="UTF-8" standalone="no"?>
<svg
   xmlns:dc="http://purl.org/dc/elements/1.1/"
   xmlns:cc="http://creativecommons.org/ns#"
   xmlns:rdf="http://www.w3.org/1999/02/22-rdf-syntax-ns#"
   xmlns:svg="http://www.w3.org/2000/svg"
   xmlns="http://www.w3.org/2000/svg"
   viewBox="0 0 617.96936 279.98532"
   height="279.98532"
   width="617.96936"
   xml:space="preserve"
   id="svg2"
   version="1.1"><metadata
     id="metadata8"><rdf:RDF><cc:Work
         rdf:about=""><dc:format>image/svg+xml</dc:format><dc:type
           rdf:resource="http://purl.org/dc/dcmitype/StillImage" /></cc:Work></rdf:RDF></metadata><defs
     id="defs6"><clipPath
       id="clipPath18"
       clipPathUnits="userSpaceOnUse"><path
         id="path16"
         d="M 0,209.989 H 463.477 V 0 H 0 Z" /></clipPath></defs><g
     transform="matrix(1.3333333,0,0,-1.3333333,0,279.98533)"
     id="g10"><g
       id="g12"><g
         clip-path="url(#clipPath18)"
         id="g14"><g
           transform="translate(246.7394,186.5323)"
           id="g20"><path
             id="path22"
             style="fill:#ffffff;fill-opacity:1;fill-rule:nonzero;stroke:none"
             d="m 0,0 c -1.161,0 -2.191,-0.729 -2.582,-1.82 l -14.444,-40.607 -38.918,18.505 c -0.375,0.18 -0.783,0.263 -1.181,0.263 -0.707,0 -1.409,-0.275 -1.938,-0.798 -0.818,-0.825 -1.037,-2.066 -0.537,-3.115 l 18.502,-38.935 -40.6,-14.44 c -1.093,-0.386 -1.826,-1.42 -1.826,-2.58 0,-1.163 0.733,-2.188 1.826,-2.581 l 40.6,-14.436 -18.502,-38.921 c -0.5,-1.045 -0.281,-2.297 0.537,-3.108 0.529,-0.531 1.231,-0.812 1.938,-0.812 0.398,0 0.806,0.093 1.181,0.269 l 38.918,18.496 14.444,-40.599 c 0.391,-1.086 1.421,-1.821 2.582,-1.821 1.158,0 2.194,0.735 2.585,1.821 l 14.433,40.599 38.886,-18.478 c 0.38,-0.194 0.798,-0.287 1.213,-0.287 0.552,0 1.105,0.168 1.576,0.508 1.094,0.765 1.472,2.207 0.906,3.412 l -18.503,38.921 40.601,14.436 c 1.089,0.393 1.821,1.418 1.821,2.581 0,1.16 -0.732,2.194 -1.821,2.58 l -40.601,14.44 18.449,38.837 c 0.206,0.379 0.315,0.811 0.315,1.27 0,1.504 -1.201,2.718 -2.701,2.741 h -0.042 c -0.077,0 -0.153,0 -0.23,-0.008 -0.353,-0.029 -0.691,-0.125 -0.994,-0.282 L 17.018,-42.427 2.585,-1.82 C 2.194,-0.729 1.158,0 0,0" /></g><g
           transform="translate(262.1925,140.3165)"
           id="g24"><path
             id="path26"
             style="fill:#ffcb04;fill-opacity:1;fill-rule:nonzero;stroke:none"
             d="M 0,0 -15.453,43.473 -30.908,0 l -41.67,19.815 19.808,-41.666 -43.465,-15.46 43.465,-15.46 -19.808,-41.652 41.664,19.804 15.461,-43.466 15.453,43.466 41.664,-19.804 -19.809,41.652 43.468,15.46 -43.468,15.453 19.809,41.673 z" /></g><g
           transform="translate(246.7394,103.005)"
           id="g28"><path
             id="path30"
             style="fill:#00466c;fill-opacity:1;fill-rule:nonzero;stroke:none"
             d="M 0,0 V 80.785 L 15.453,37.311 Z" /></g><g
           transform="translate(246.7394,103.005)"
           id="g32"><path
             id="path34"
             style="fill:#00466c;fill-opacity:1;fill-rule:nonzero;stroke:none"
             d="m 0,0 -57.125,57.127 41.67,-19.816 z" /></g><g
           transform="translate(246.7394,103.005)"
           id="g36"><path
             id="path38"
             style="fill:#00466c;fill-opacity:1;fill-rule:nonzero;stroke:none"
             d="m 0,0 h -80.782 l 43.465,15.461 z" /></g><g
           transform="translate(246.7394,103.005)"
           id="g40"><path
             id="path42"
             style="fill:#00466c;fill-opacity:1;fill-rule:nonzero;stroke:none"
             d="m 0,0 -57.125,-57.112 19.808,41.652 z" /></g><g
           transform="translate(246.7394,103.005)"
           id="g44"><path
             id="path46"
             style="fill:#00466c;fill-opacity:1;fill-rule:nonzero;stroke:none"
             d="m 0,0 v -80.774 l -15.461,43.467 z" /></g><g
           transform="translate(246.7394,103.005)"
           id="g48"><path
             id="path50"
             style="fill:#00466c;fill-opacity:1;fill-rule:nonzero;stroke:none"
             d="M 0,0 57.117,-57.112 15.453,-37.307 Z" /></g><g
           transform="translate(246.7394,103.005)"
           id="g52"><path
             id="path54"
             style="fill:#00466c;fill-opacity:1;fill-rule:nonzero;stroke:none"
             d="M 0,0 H 80.776 L 37.308,-15.46 Z" /></g><g
           transform="translate(246.7394,103.005)"
           id="g56"><path
             id="path58"
             style="fill:#00466c;fill-opacity:1;fill-rule:nonzero;stroke:none"
             d="M 0,0 57.117,57.127 37.308,15.454 Z" /></g><g
           transform="translate(218.1803,136.8678)"
           id="g60"><path
             id="path62"
             style="fill:#ffffff;fill-opacity:1;fill-rule:evenodd;stroke:none"
             d="m 0,0 c -2.928,0 -5.306,-2.375 -5.306,-5.302 0,-2.939 2.378,-5.31 5.306,-5.31 2.93,0 5.306,2.371 5.306,5.31 C 5.306,-2.375 2.93,0 0,0" /></g><g
           transform="translate(275.3019,126.2559)"
           id="g64"><path
             id="path66"
             style="fill:#ffffff;fill-opacity:1;fill-rule:evenodd;stroke:none"
             d="M 0,0 C 2.923,0 5.306,2.371 5.306,5.31 5.306,8.237 2.923,10.612 0,10.612 -2.936,10.612 -5.311,8.237 -5.311,5.31 -5.311,2.371 -2.936,0 0,0" /></g><g
           transform="translate(275.3019,79.7525)"
           id="g68"><path
             id="path70"
             style="fill:#ffffff;fill-opacity:1;fill-rule:evenodd;stroke:none"
             d="m 0,0 c -2.936,0 -5.311,-2.373 -5.311,-5.305 0,-2.925 2.375,-5.302 5.311,-5.302 2.923,0 5.306,2.377 5.306,5.302 C 5.306,-2.373 2.923,0 0,0" /></g><g
           transform="translate(218.1803,79.7525)"
           id="g72"><path
             id="path74"
             style="fill:#ffffff;fill-opacity:1;fill-rule:evenodd;stroke:none"
             d="m 0,0 c -2.928,0 -5.306,-2.373 -5.306,-5.305 0,-2.925 2.378,-5.302 5.306,-5.302 2.93,0 5.306,2.377 5.306,5.302 C 5.306,-2.373 2.93,0 0,0" /></g><g
           transform="translate(246.7394,79.7525)"
           id="g76"><path
             id="path78"
             style="fill:#ffffff;fill-opacity:1;fill-rule:evenodd;stroke:none"
             d="m 0,0 c -2.928,0 -5.305,-2.373 -5.305,-5.305 0,-2.925 2.377,-5.302 5.305,-5.302 2.925,0 5.302,2.377 5.302,5.302 C 5.302,-2.373 2.925,0 0,0" /></g><g
           transform="translate(246.7394,136.8678)"
           id="g80"><path
             id="path82"
             style="fill:#ffffff;fill-opacity:1;fill-rule:evenodd;stroke:none"
             d="m 0,0 c -2.928,0 -5.305,-2.375 -5.305,-5.302 0,-2.939 2.377,-5.31 5.305,-5.31 2.925,0 5.302,2.371 5.302,5.31 C 5.302,-2.375 2.925,0 0,0" /></g><g
           transform="translate(218.1803,97.6998)"
           id="g84"><path
             id="path86"
             style="fill:#ffffff;fill-opacity:1;fill-rule:evenodd;stroke:none"
             d="m 0,0 c 2.923,0 5.306,2.377 5.306,5.305 0,2.933 -2.383,5.304 -5.306,5.304 -2.935,0 -5.306,-2.371 -5.306,-5.304 C -5.306,2.377 -2.935,0 0,0" /></g><g
           transform="translate(218.1803,127.2862)"
           id="g88"><path
             id="path90"
             style="fill:#00476b;fill-opacity:1;fill-rule:nonzero;stroke:none"
             d="m 0,0 c -2.359,0 -4.281,1.92 -4.281,4.279 0,2.36 1.922,4.272 4.281,4.272 2.359,0 4.277,-1.912 4.277,-4.272 C 4.277,1.92 2.359,0 0,0 m 0,10.609 c -3.494,0 -6.337,-2.846 -6.337,-6.33 0,-3.491 2.843,-6.34 6.337,-6.34 3.494,0 6.33,2.849 6.33,6.34 0,3.484 -2.836,6.33 -6.33,6.33" /></g><g
           transform="translate(275.3019,135.8374)"
           id="g92"><path
             id="path94"
             style="fill:#00476b;fill-opacity:1;fill-rule:nonzero;stroke:none"
             d="m 0,0 c 2.355,0 4.273,-1.913 4.273,-4.272 0,-2.359 -1.918,-4.279 -4.273,-4.279 -2.36,0 -4.282,1.92 -4.282,4.279 C -4.282,-1.913 -2.36,0 0,0 m 0,-10.612 c 3.487,0 6.33,2.843 6.33,6.34 0,3.483 -2.843,6.33 -6.33,6.33 -3.499,0 -6.334,-2.847 -6.334,-6.33 0,-3.497 2.835,-6.34 6.334,-6.34" /></g><g
           transform="translate(275.3019,70.1744)"
           id="g96"><path
             id="path98"
             style="fill:#00476b;fill-opacity:1;fill-rule:nonzero;stroke:none"
             d="m 0,0 c -2.36,0 -4.282,1.914 -4.282,4.273 0,2.362 1.922,4.278 4.282,4.278 2.355,0 4.273,-1.916 4.273,-4.278 C 4.273,1.914 2.355,0 0,0 m 0,10.607 c -3.499,0 -6.334,-2.841 -6.334,-6.334 0,-3.494 2.835,-6.332 6.334,-6.332 3.487,0 6.33,2.838 6.33,6.332 0,3.493 -2.843,6.334 -6.33,6.334" /></g><g
           transform="translate(218.1803,70.1744)"
           id="g100"><path
             id="path102"
             style="fill:#00476b;fill-opacity:1;fill-rule:nonzero;stroke:none"
             d="m 0,0 c -2.359,0 -4.275,1.914 -4.275,4.273 0,2.362 1.916,4.278 4.275,4.278 2.359,0 4.277,-1.916 4.277,-4.278 C 4.277,1.914 2.359,0 0,0 m 0,10.607 c -3.494,0 -6.337,-2.841 -6.337,-6.334 0,-3.494 2.843,-6.332 6.337,-6.332 3.494,0 6.33,2.838 6.33,6.332 0,3.493 -2.836,6.334 -6.33,6.334" /></g><g
           transform="translate(246.7394,70.1744)"
           id="g104"><path
             id="path106"
             style="fill:#00476b;fill-opacity:1;fill-rule:nonzero;stroke:none"
             d="m 0,0 c -2.358,0 -4.28,1.914 -4.28,4.273 0,2.362 1.922,4.272 4.28,4.272 2.355,0 4.277,-1.91 4.277,-4.272 C 4.277,1.914 2.355,0 0,0 m 0,10.607 c -3.491,0 -6.334,-2.841 -6.334,-6.334 0,-3.494 2.843,-6.332 6.334,-6.332 3.495,0 6.332,2.838 6.332,6.332 0,3.493 -2.837,6.334 -6.332,6.334" /></g><g
           transform="translate(246.7394,127.2862)"
           id="g108"><path
             id="path110"
             style="fill:#00476b;fill-opacity:1;fill-rule:nonzero;stroke:none"
             d="m 0,0 c -2.358,0 -4.28,1.92 -4.28,4.279 0,2.36 1.922,4.272 4.28,4.272 2.355,0 4.277,-1.912 4.277,-4.272 C 4.277,1.92 2.355,0 0,0 m 0,10.609 c -3.491,0 -6.334,-2.846 -6.334,-6.33 0,-3.497 2.843,-6.34 6.334,-6.34 3.495,0 6.332,2.843 6.332,6.34 0,3.484 -2.837,6.33 -6.332,6.33" /></g><g
           transform="translate(218.1803,107.2808)"
           id="g112"><path
             id="path114"
             style="fill:#00476b;fill-opacity:1;fill-rule:nonzero;stroke:none"
             d="m 0,0 c 2.359,0 4.277,-1.918 4.277,-4.276 0,-2.358 -1.918,-4.282 -4.277,-4.282 -2.359,0 -4.281,1.924 -4.281,4.282 C -4.281,-1.918 -2.359,0 0,0 m 0,-10.608 c 3.487,0 6.33,2.841 6.33,6.332 0,3.493 -2.843,6.336 -6.33,6.336 -3.494,0 -6.337,-2.843 -6.337,-6.336 0,-3.491 2.843,-6.332 6.337,-6.332" /></g><g
           transform="translate(275.2902,136.8678)"
           id="g116"><path
             id="path118"
             style="fill:#ffffff;fill-opacity:1;fill-rule:evenodd;stroke:none"
             d="m 0,0 c 2.934,0 5.317,-2.375 5.317,-5.302 0,-2.939 -2.383,-5.31 -5.317,-5.31 -2.924,0 -5.299,2.371 -5.299,5.31 C -5.299,-2.375 -2.924,0 0,0" /></g><g
           transform="translate(218.1803,126.2559)"
           id="g120"><path
             id="path122"
             style="fill:#ffffff;fill-opacity:1;fill-rule:evenodd;stroke:none"
             d="m 0,0 c -2.935,0 -5.306,2.371 -5.306,5.31 0,2.927 2.371,5.302 5.306,5.302 2.923,0 5.306,-2.375 5.306,-5.302 C 5.306,2.371 2.923,0 0,0" /></g><g
           transform="translate(218.1803,79.7525)"
           id="g124"><path
             id="path126"
             style="fill:#ffffff;fill-opacity:1;fill-rule:evenodd;stroke:none"
             d="m 0,0 c 2.923,0 5.306,-2.373 5.306,-5.305 0,-2.925 -2.383,-5.302 -5.306,-5.302 -2.935,0 -5.306,2.377 -5.306,5.302 C -5.306,-2.373 -2.935,0 0,0" /></g><g
           transform="translate(275.2902,79.7525)"
           id="g128"><path
             id="path130"
             style="fill:#ffffff;fill-opacity:1;fill-rule:evenodd;stroke:none"
             d="m 0,0 c 2.934,0 5.317,-2.373 5.317,-5.305 0,-2.925 -2.383,-5.302 -5.317,-5.302 -2.924,0 -5.299,2.377 -5.299,5.302 C -5.299,-2.373 -2.924,0 0,0" /></g><g
           transform="translate(246.7355,79.7525)"
           id="g132"><path
             id="path134"
             style="fill:#ffffff;fill-opacity:1;fill-rule:evenodd;stroke:none"
             d="m 0,0 c 2.929,0 5.306,-2.373 5.306,-5.305 0,-2.925 -2.377,-5.302 -5.306,-5.302 -2.924,0 -5.301,2.377 -5.301,5.302 C -5.301,-2.373 -2.924,0 0,0" /></g><g
           transform="translate(246.7355,136.8678)"
           id="g136"><path
             id="path138"
             style="fill:#ffffff;fill-opacity:1;fill-rule:evenodd;stroke:none"
             d="m 0,0 c 2.929,0 5.306,-2.375 5.306,-5.302 0,-2.939 -2.377,-5.31 -5.306,-5.31 -2.924,0 -5.301,2.371 -5.301,5.31 C -5.301,-2.375 -2.924,0 0,0" /></g><g
           transform="translate(275.3019,97.6998)"
           id="g140"><path
             id="path142"
             style="fill:#ffffff;fill-opacity:1;fill-rule:evenodd;stroke:none"
             d="m 0,0 c -2.936,0 -5.311,2.377 -5.311,5.305 0,2.933 2.375,5.304 5.311,5.304 2.923,0 5.306,-2.371 5.306,-5.304 C 5.306,2.377 2.923,0 0,0" /></g><g
           transform="translate(271.0197,131.5654)"
           id="g144"><path
             id="path146"
             style="fill:#00466c;fill-opacity:1;fill-rule:nonzero;stroke:none"
             d="M 0,0 C 0,2.359 1.922,4.272 4.271,4.272 6.63,4.272 8.556,2.359 8.556,0 8.556,-2.359 6.63,-4.279 4.271,-4.279 1.922,-4.279 0,-2.359 0,0 m -2.052,0 c 0,-3.491 2.835,-6.34 6.323,-6.34 3.499,0 6.339,2.849 6.339,6.34 0,3.483 -2.84,6.33 -6.339,6.33 C 0.783,6.33 -2.052,3.483 -2.052,0" /></g><g
           transform="translate(222.4572,131.5654)"
           id="g148"><path
             id="path150"
             style="fill:#00466c;fill-opacity:1;fill-rule:nonzero;stroke:none"
             d="m 0,0 c 0,-2.359 -1.917,-4.279 -4.277,-4.279 -2.359,0 -4.281,1.92 -4.281,4.279 0,2.359 1.922,4.272 4.281,4.272 C -1.917,4.272 0,2.359 0,0 m 2.053,0 c 0,3.483 -2.843,6.33 -6.33,6.33 -3.494,0 -6.337,-2.847 -6.337,-6.33 0,-3.497 2.843,-6.34 6.337,-6.34 3.487,0 6.33,2.843 6.33,6.34" /></g><g
           transform="translate(213.8991,74.4478)"
           id="g152"><path
             id="path154"
             style="fill:#00466c;fill-opacity:1;fill-rule:nonzero;stroke:none"
             d="M 0,0 C 0,2.361 1.922,4.277 4.281,4.277 6.641,4.277 8.558,2.361 8.558,0 8.558,-2.359 6.641,-4.273 4.281,-4.273 1.922,-4.273 0,-2.359 0,0 m -2.056,0 c 0,-3.494 2.843,-6.332 6.337,-6.332 3.488,0 6.33,2.838 6.33,6.332 0,3.492 -2.842,6.334 -6.33,6.334 C 0.787,6.334 -2.056,3.492 -2.056,0" /></g><g
           transform="translate(271.0197,74.4478)"
           id="g156"><path
             id="path158"
             style="fill:#00466c;fill-opacity:1;fill-rule:nonzero;stroke:none"
             d="M 0,0 C 0,2.361 1.922,4.277 4.271,4.277 6.63,4.277 8.552,2.361 8.552,0 8.552,-2.359 6.63,-4.273 4.271,-4.273 1.922,-4.273 0,-2.359 0,0 m -2.052,0 c 0,-3.494 2.835,-6.332 6.323,-6.332 3.499,0 6.339,2.838 6.339,6.332 0,3.492 -2.84,6.334 -6.339,6.334 C 0.783,6.334 -2.052,3.492 -2.052,0" /></g><g
           transform="translate(242.4591,74.4478)"
           id="g160"><path
             id="path162"
             style="fill:#00466c;fill-opacity:1;fill-rule:nonzero;stroke:none"
             d="M 0,0 C 0,2.361 1.922,4.271 4.276,4.271 6.636,4.271 8.558,2.361 8.558,0 8.558,-2.359 6.636,-4.273 4.276,-4.273 1.922,-4.273 0,-2.359 0,0 m -2.054,0 c 0,-3.494 2.843,-6.332 6.33,-6.332 3.499,0 6.336,2.838 6.336,6.332 0,3.492 -2.837,6.334 -6.336,6.334 -3.487,0 -6.33,-2.842 -6.33,-6.334" /></g><g
           transform="translate(242.4591,131.5654)"
           id="g164"><path
             id="path166"
             style="fill:#00466c;fill-opacity:1;fill-rule:nonzero;stroke:none"
             d="M 0,0 C 0,2.359 1.922,4.272 4.276,4.272 6.636,4.272 8.558,2.359 8.558,0 8.558,-2.359 6.636,-4.279 4.276,-4.279 1.922,-4.279 0,-2.359 0,0 m -2.054,0 c 0,-3.497 2.843,-6.34 6.33,-6.34 3.499,0 6.336,2.843 6.336,6.34 0,3.483 -2.837,6.33 -6.336,6.33 -3.487,0 -6.33,-2.847 -6.33,-6.33" /></g><g
           transform="translate(279.5831,103.005)"
           id="g168"><path
             id="path170"
             style="fill:#00466c;fill-opacity:1;fill-rule:nonzero;stroke:none"
             d="m 0,0 c 0,-2.358 -1.926,-4.282 -4.281,-4.282 -2.361,0 -4.282,1.924 -4.282,4.282 0,2.357 1.921,4.276 4.282,4.276 C -1.926,4.276 0,2.357 0,0 m 2.049,0 c 0,3.493 -2.843,6.336 -6.33,6.336 -3.491,0 -6.334,-2.843 -6.334,-6.336 0,-3.491 2.843,-6.333 6.334,-6.333 3.487,0 6.33,2.842 6.33,6.333" /></g><g
           transform="translate(323.2228,96.4869)"
           id="g172"><path
             id="path174"
             style="fill:#00466c;fill-opacity:1;fill-rule:nonzero;stroke:none"
             d="M 0,0 C 0.184,-0.463 0.416,-0.895 0.76,-1.244 2.119,-0.904 2.421,0.555 4.101,0.545 3.975,0.809 3.892,1.08 3.788,1.346 Z" /></g><g
           transform="translate(307.296,116.7052)"
           id="g176"><path
             id="path178"
             style="fill:#00466c;fill-opacity:1;fill-rule:nonzero;stroke:none"
             d="M 0,0 C -1.474,-0.052 -2.896,-0.046 -4.272,0.004 L 14.561,-6.693 C 14.57,-4.45 14.294,-2.202 13.36,0 c 3.51,-1.064 3.983,-4.068 3.614,-7.552 l 3.443,-1.224 c 1.897,3.982 5.3,6.648 7.965,5.198 6.29,3.641 -5.755,5.115 -6.678,1.794 0.058,0.788 -3.819,7.703 -1.677,8.949 -12.169,0.448 -23.394,1.369 -33.25,4.707 L -14.217,9.781 C -9.908,7.848 -5.734,5.774 0,5.381 -4.026,3.023 -10.368,4.621 -15.353,7.395 l -1.403,-2.953 2.647,-0.94 C -8.569,3.223 -3.582,2.352 0,0" /></g><g
           transform="translate(200.2604,126.774)"
           id="g180"><path
             id="path182"
             style="fill:#00466c;fill-opacity:1;fill-rule:nonzero;stroke:none"
             d="m 0,0 c -1.595,0.188 -3.188,0.397 -4.758,0.667 1.524,-1.304 3.485,-2.154 5.72,-2.697 z" /></g><g
           transform="translate(190.5001,120.2999)"
           id="g184"><path
             id="path186"
             style="fill:#00466c;fill-opacity:1;fill-rule:nonzero;stroke:none"
             d="M 0,0 C -3.342,-1.822 0.79,-1.936 4.823,-1.857 L 12.43,0.848 12.195,1.347 C 8.471,0.529 4.247,0.255 0,0" /></g><g
           transform="translate(150.4591,89.8736)"
           id="g188"><path
             id="path190"
             style="fill:#00466c;fill-opacity:1;fill-rule:nonzero;stroke:none"
             d="m 0,0 c -1.669,2.387 -4.516,3.504 -5.014,7.158 1.343,1.533 4.577,1.067 5.014,3.576 -5.616,1.129 -12.17,1.268 -15.021,5.357 -6.932,-1.709 -0.345,5.37 0,0 C -9.413,14.967 -2.862,14.841 0,10.734 6.687,11.703 2.475,0.357 0,0 m -16.689,8.953 c -0.327,-1.463 -1.673,-1.785 -1.673,-3.584 1.94,0.289 2.964,-0.402 3.341,-1.789 -4.462,1.191 -10.429,0.74 -13.353,3.578 3.695,-0.984 2.372,3.418 5.005,3.576 0.518,-2.431 4.182,-1.482 6.68,-1.781 0.334,5.351 6.929,-1.721 0,0 m -16.686,5.364 c -1.388,-2.273 -5.854,-10.208 -8.363,-5.364 7.838,3.212 -0.472,5.364 -3.319,7.138 1.935,-0.278 2.963,0.411 3.319,1.811 5.145,1.326 3.218,-4.924 8.363,-3.585 5.381,5.475 12.485,-2.145 0,0 m -13.351,-1.79 h -3.34 c -1.034,-2.611 -2.023,0.177 0,0 -1.237,3.181 -3.039,0.257 -5.012,0 -0.614,6.106 9.653,7.543 8.352,0 M -83.445,7.158 c -0.33,-5.363 -6.92,1.711 0,0 3.66,5.461 10.691,-2.064 0,0 M -98.453,5.369 c 1.965,-0.275 4.73,0.307 5.001,-1.789 -1.963,0.272 -4.728,-0.31 -5.001,1.789 m 116.794,0 c 0.125,0.75 0.074,1.315 -0.069,1.785 l -4.345,1.547 c -1.877,0.666 -3.136,2.449 -3.136,4.43 0,1.251 0.504,2.419 1.34,3.281 C 11.417,16.306 10.719,16.191 10.002,16.091 10.987,5.51 8.368,-1.238 6.676,-8.949 2.774,-2.895 10.319,6.154 8.333,16.091 -8.372,13.693 -8.913,28.64 -21.708,30.426 c 3.053,-5.1 9.492,-6.526 11.695,-12.524 -7.555,1.456 -12.981,5.168 -20.029,7.145 0.396,-2.551 2.739,-3.023 3.331,-5.367 -26.572,2.262 -43.494,-5.844 -70.079,-3.589 -5.395,-2.05 4.483,-2.014 6.679,-1.774 0.069,-2.665 -9.913,-2.6 -1.669,-3.583 -4.964,-4.037 -16.471,0.17 -21.701,1.793 -1.928,-7.478 -10.142,-8.207 -8.33,-19.685 3.148,-0.403 3.671,2.015 6.661,1.795 0.918,-6.344 -5.906,-4.397 -4.99,-10.744 15.012,0.498 16.658,12.572 30.029,10.744 -3.744,3.842 1.162,6.332 6.666,5.363 -0.664,-3.463 -7.633,-0.152 -5.009,-7.158 5.248,1.531 7.055,6.771 13.357,7.158 -0.015,4.76 0.628,10.219 -1.661,12.527 6.02,1.694 2.314,-7.043 3.33,-10.738 15.143,3.629 38.419,2.32 51.72,-1.789 -0.268,-2.082 -2.623,-1.937 -5.003,-1.789 1.693,-2.965 7.083,-1.951 10.022,-3.574 0.721,-4.938 -6.227,-1.694 -6.68,-5.366 5.099,-1.296 6.084,1.821 10.009,1.78 -1.646,-6.578 -13.655,-2.043 -15.014,-8.951 18.989,10.677 54.346,3.763 75.091,12.537 2.561,-0.426 0.241,-2.953 -1.674,-3.586 1.823,-1.135 3.706,-0.615 5.778,0.465 L 52.471,-5.01 20.418,6.389 C 19.762,6.008 19.089,5.648 18.341,5.369" /></g><g
           transform="translate(407.4171,86.2915)"
           id="g192"><path
             id="path194"
             style="fill:#00466c;fill-opacity:1;fill-rule:nonzero;stroke:none"
             d="M 0,0 C -0.207,0.553 -0.331,1.018 -0.395,1.418 0.471,1.127 1.483,0.842 2.671,0.576 1.931,0.297 1.069,0.047 0,0 m -55.063,10.74 c -0.126,6.096 6.187,5.297 11.673,5.369 v 1.79 c 1.356,1.243 4.588,2.785 5.01,0 -1.329,-0.957 -2.716,-1.868 -5.01,-1.79 v -1.793 c -3.592,-1.492 -5.676,-4.638 -11.673,-3.576 m 1.67,7.159 c 3.554,2.751 6.224,6.453 10.003,8.937 0.852,-7.446 -4.213,-8.578 -10.003,-8.937 -0.333,-5.364 -6.939,1.713 0,0 m -8.344,17.895 c -8.61,0.092 -3.497,16.006 -11.683,7.149 0.541,9.572 4.416,15.558 8.351,21.473 -0.11,-10.17 7.693,-19.677 3.332,-28.622 m 55.07,-14.31 c -12.82,1.807 -14.245,-8.593 -20.03,-14.322 0.487,10.256 10.09,20.142 20.03,14.322 m -5.005,-5.375 c -2.693,0.49 -2.876,-1.691 -5.009,-1.793 0.265,-2.08 -0.368,-3.189 -1.676,-3.576 V 3.582 h -3.333 c -0.32,1.449 -1.673,1.781 -1.664,3.58 3.705,-0.984 2.373,3.416 4.997,3.578 -0.269,2.084 0.376,3.176 1.676,3.576 -2.598,4.398 5.656,5.264 5.009,1.793 M 5.005,21.484 C 3.992,21.375 3.037,21.208 3.348,19.673 H 0 c -2.589,4.416 5.671,5.276 5.005,1.811 M 38.568,8.283 C 29.396,5.605 18.024,4.027 12.21,5.244 9.24,5.865 1.165,6.781 -3.316,5.926 -5.489,6.4 -7.592,6.951 -10.013,7.162 -11.766,0.508 -4.387,3.65 -3.337,0 -1.91,0.326 -1.763,-0.699 -1.659,-1.781 -5.111,-5.961 -16.143,-3.092 -18.357,0 c -8.271,0.668 -20.318,-2.693 -21.688,5.371 -1.415,-0.328 -1.574,0.693 -1.667,1.791 h -3.328 c -1.033,-2.603 -2.033,0.172 0,0 0.407,2.252 3.317,1.811 3.328,0 1.428,0.322 1.575,-0.703 1.667,-1.791 4.148,-5.098 16.185,-1.732 21.688,-5.371 5.637,1.711 11.394,-5.477 15.02,0 -5.096,-1.291 -6.089,1.832 -10.002,1.793 -0.084,3.061 1.228,4.631 3.326,5.369 0.516,2.418 4.188,1.481 6.676,1.789 -9.488,3.115 0.92,7.13 6.685,3.584 1.358,7.915 3.765,6.636 8.342,3.574 -1.346,6.206 2.479,6.877 1.669,12.52 -2.152,2.456 -7.258,1.766 -11.69,1.785 0.311,-2.642 4.026,-1.635 6.674,-1.785 -11.176,-5.104 -20.742,-1.141 -35.04,-1.793 -2.182,0.027 -2.124,4.962 0,5.379 -0.352,1.998 -1.838,2.781 -3.334,3.579 -0.511,-2.43 -4.174,-1.486 -6.672,-1.786 -0.023,-0.744 -0.036,-1.487 -0.062,-2.229 0.509,0.228 1.063,0.407 1.695,0.407 0.161,0 0.297,-0.052 0.458,-0.079 0.14,0.424 0.37,0.488 0.672,-0.105 1.277,-0.351 2.184,-1.289 2.184,-2.41 0,-1.417 -1.478,-2.591 -3.314,-2.591 -0.585,0 -1.115,0.169 -1.599,0.366 0.334,-2.781 1.472,-4.709 4.961,-4.105 -4.757,-5.558 -9.591,3.921 -8.337,10.746 0.394,3.131 2.88,4.067 6.668,3.57 h 1.669 c -7.492,3.311 -19.81,1.412 -26.692,5.365 -0.046,10.1 -2.605,17.485 -6.669,23.261 -10.285,-2.097 -7.981,-17.69 -13.348,-25.054 2.983,-8.73 10.886,-4.149 15.021,-8.935 -0.287,-2.084 -2.644,-1.959 -5.017,-1.801 0.024,-3.551 4.558,-2.268 3.344,-7.152 7.954,1.608 10.847,8.633 20.029,8.953 -0.665,-11.828 -14.568,-9.447 -23.373,-12.542 -0.368,-1.363 -0.046,-3.522 -1.675,-3.564 -1.007,-2.611 -2.007,0.177 0,0 v 3.564 c -3.002,0.263 -4.209,-1.4 -5.141,-3.364 -0.099,-1.12 -0.586,-2.153 -1.368,-2.926 -0.736,-1.34 -1.713,-2.422 -3.497,-2.643 0.073,-3.062 -1.238,-4.636 -3.341,-5.369 -1.285,1.291 -2.024,2.713 -2.44,4.225 l -21.952,-7.805 c 3.553,-0.143 6.837,-0.574 9.388,-1.791 -0.269,-2.098 -3.05,-1.512 -5.007,-1.781 -2.774,-2.721 -6.46,-4.457 -10.496,-5.815 l 3.031,-6.375 c 22.557,4.832 50.031,9.225 75.887,3.244 h 20.014 c 8.692,-3.14 25.161,-3.318 23.399,10.35 0.543,-0.064 1.095,-0.129 1.684,-0.189 10.15,-1.024 21.012,-0.922 22.52,-0.946 -2.831,0.498 -7.846,1.112 -9.9,2.395 6.667,1.285 12.273,2.615 15.875,7.4" /></g><g
           transform="translate(294.4611,86.2564)"
           id="g196"><path
             id="path198"
             style="fill:#00466c;fill-opacity:1;fill-rule:nonzero;stroke:none"
             d="m 0,0 -3.921,-1.393 1.642,-3.443 C 1.335,-3.467 5.324,-2.498 9.51,-1.746 8.306,0.943 4.112,0.428 0,0" /></g></g></g></g></svg>